<svg width="32" height="31" viewBox="0 0 32 31" fill="none" xmlns="http://www.w3.org/2000/svg">
<path d="M17.1004 2.56986C17.0503 2.10788 17.0503 1.64184 17.1004 1.17986C17.1167 0.960234 17.1535 0.742618 17.2104 0.529857V0.289857C17.2164 0.271597 17.2165 0.251865 17.2106 0.23356C17.2046 0.215254 17.1929 0.199339 17.1773 0.188151C17.1616 0.176963 17.1428 0.171091 17.1235 0.171398C17.1043 0.171705 17.0857 0.178175 17.0704 0.189857C16.436 0.724138 15.8982 1.36344 15.4804 2.07986C15.1362 2.66703 14.9246 3.32233 14.8604 3.99986C15.6991 4.09998 16.5263 4.28082 17.3304 4.53986C17.3054 3.87818 17.2285 3.21949 17.1004 2.56986V2.56986Z" fill="#FEBE10"/>
<path d="M11.17 4.04977C11.9174 3.9322 12.6734 3.87867 13.43 3.88977C13.4196 3.78807 13.3996 3.68761 13.37 3.58977C13.2707 3.27718 13.147 2.97291 13 2.67977C12.8521 2.35486 12.7252 2.02085 12.62 1.67977C12.5352 1.41927 12.475 1.15145 12.44 0.879768C12.4302 0.72659 12.4302 0.572946 12.44 0.419768V0.239768C12.44 0.159768 12.34 0.119768 12.3 0.179768C11.9151 0.71313 11.6242 1.30837 11.44 1.93977C11.2898 2.37562 11.199 2.8297 11.17 3.28977C11.1452 3.489 11.1452 3.69054 11.17 3.88977V4.04977Z" fill="#FEBE10"/>
<path d="M7.58028 4.99983L7.64028 5.11982L7.86028 4.99983C8.40304 4.76304 8.96093 4.56259 9.53028 4.39983L9.42028 4.18983C9.24884 3.94536 9.05464 3.71768 8.84028 3.50982C8.6335 3.25902 8.4431 2.99514 8.27028 2.71982C8.13798 2.51195 8.021 2.29471 7.92028 2.06982C7.86981 1.94328 7.82967 1.81285 7.80028 1.67982C7.80028 1.67982 7.80028 1.60982 7.80028 1.55982C7.79336 1.54732 7.78322 1.5369 7.77091 1.52964C7.7586 1.52238 7.74457 1.51855 7.73028 1.51855C7.71599 1.51855 7.70196 1.52238 7.68965 1.52964C7.67734 1.5369 7.6672 1.54732 7.66028 1.55982C7.46045 2.10805 7.35561 2.68634 7.35028 3.26982C7.30596 3.67671 7.32281 4.08793 7.40028 4.48982C7.44143 4.6659 7.50179 4.83693 7.58028 4.99983V4.99983Z" fill="#FEBE10"/>
<path d="M21.6201 6.81C22.4103 7.43506 23.1251 8.14986 23.7501 8.94C24.1695 8.27932 24.5372 7.58727 24.8501 6.87C25.1027 6.37765 25.4043 5.91197 25.7501 5.48C25.9239 5.27776 26.111 5.08734 26.3101 4.91C26.3796 4.83926 26.4531 4.77249 26.5301 4.71C26.5512 4.69603 26.5668 4.67522 26.5744 4.65107C26.5819 4.62693 26.5809 4.60093 26.5715 4.57745C26.5621 4.55397 26.5449 4.53444 26.5228 4.52215C26.5007 4.50987 26.475 4.50557 26.4501 4.51C25.4575 4.61471 24.4902 4.88867 23.5901 5.32C22.826 5.65588 22.1513 6.1662 21.6201 6.81V6.81Z" fill="#FEBE10"/>
<path d="M25.5397 11.8899C25.6097 12.0499 25.6697 12.2099 25.7297 12.3699C26.3757 11.7875 26.9681 11.1483 27.4997 10.4599C27.9024 10.0134 28.3516 9.6111 28.8397 9.25986C29.0729 9.08874 29.3205 8.93817 29.5797 8.80986L29.8597 8.65986C29.8845 8.65248 29.9062 8.6373 29.9216 8.61658C29.9371 8.59586 29.9454 8.5707 29.9454 8.54486C29.9454 8.51902 29.9371 8.49386 29.9216 8.47314C29.9062 8.45242 29.8845 8.43724 29.8597 8.42986C28.7911 8.26662 27.7027 8.28352 26.6397 8.47986C25.7562 8.6285 24.9163 8.96992 24.1797 9.47986C24.7139 10.2348 25.1696 11.0423 25.5397 11.8899V11.8899Z" fill="#FEBE10"/>
<path d="M21.3002 4.13993C21.3918 3.63835 21.5394 3.14862 21.7402 2.67993C21.8305 2.44424 21.9409 2.21674 22.0702 1.99993L22.2102 1.76993C22.225 1.75322 22.2339 1.73202 22.2352 1.70972C22.2366 1.68741 22.2305 1.66528 22.2178 1.64686C22.2052 1.62845 22.1867 1.6148 22.1654 1.60811C22.1441 1.60141 22.1211 1.60205 22.1002 1.60993C21.25 1.9696 20.4685 2.4737 19.7902 3.09993C19.2131 3.60678 18.7555 4.23516 18.4502 4.93993C19.3039 5.29423 20.1183 5.73663 20.8802 6.25993C21.0796 5.56633 21.2201 4.85715 21.3002 4.13993V4.13993Z" fill="#FEBE10"/>
<path d="M28.8797 17.2501C28.18 16.9614 27.426 16.8283 26.6697 16.8601C26.6988 17.7911 26.6318 18.7227 26.4697 19.6401C27.2023 19.5161 27.922 19.3254 28.6197 19.0701C29.1087 18.9286 29.6117 18.8414 30.1197 18.8101C30.3624 18.7851 30.607 18.7851 30.8497 18.8101H31.1197C31.141 18.8146 31.1632 18.8121 31.1829 18.8028C31.2026 18.7936 31.2187 18.7783 31.2289 18.759C31.2391 18.7398 31.2427 18.7178 31.2393 18.6963C31.2358 18.6749 31.2254 18.6551 31.2097 18.6401C30.5173 18.0482 29.7294 17.5782 28.8797 17.2501V17.2501Z" fill="#FEBE10"/>
<path d="M31.29 13.5098C30.3886 13.0855 29.4214 12.8184 28.43 12.7198C27.6093 12.6326 26.7794 12.7282 26 12.9998C26.33 13.9718 26.5481 14.9783 26.65 15.9998C27.3703 15.6277 28.0563 15.1927 28.7 14.6998C29.1719 14.417 29.6711 14.1825 30.19 13.9998C30.4409 13.91 30.6983 13.8398 30.96 13.7898L31.26 13.7298C31.2892 13.7337 31.3187 13.726 31.3422 13.7082C31.3656 13.6903 31.381 13.6639 31.385 13.6348C31.389 13.6056 31.3812 13.576 31.3634 13.5526C31.3456 13.5291 31.3192 13.5137 31.29 13.5098V13.5098Z" fill="#FEBE10"/>
<path d="M22.1005 27.3901C21.5905 27.8322 21.0491 28.2366 20.4805 28.6001C20.8859 28.9414 21.321 29.246 21.7805 29.5101C22.0828 29.7228 22.3641 29.9639 22.6205 30.2301C22.7413 30.3612 22.8517 30.5017 22.9505 30.6501L23.0705 30.8101C23.0757 30.8231 23.0846 30.8343 23.0962 30.8421C23.1078 30.85 23.1215 30.8542 23.1355 30.8542C23.1495 30.8542 23.1631 30.85 23.1747 30.8421C23.1863 30.8343 23.1953 30.8231 23.2005 30.8101C23.2233 30.1315 23.1251 29.4543 22.9105 28.8101C22.7516 28.2815 22.4746 27.7959 22.1005 27.3901V27.3901Z" fill="#FEBE10"/>
<path d="M24.6403 24.3901C24.2365 25.0323 23.7817 25.641 23.2803 26.2101C23.8347 26.4505 24.4106 26.638 25.0003 26.7701C25.3962 26.8936 25.7782 27.0578 26.1403 27.2601C26.3153 27.3607 26.4824 27.4744 26.6403 27.6001L26.8203 27.7301C26.8331 27.7413 26.8492 27.7481 26.8662 27.7494C26.8832 27.7508 26.9001 27.7468 26.9146 27.7378C26.9291 27.7289 26.9404 27.7156 26.9468 27.6998C26.9532 27.6841 26.9544 27.6666 26.9503 27.6501C26.734 26.9311 26.3958 26.2546 25.9503 25.6501C25.6131 25.1376 25.1655 24.7071 24.6403 24.3901Z" fill="#FEBE10"/>
<path d="M28 21.69C27.4635 21.255 26.8392 20.9412 26.17 20.77C25.9531 21.5863 25.6584 22.3799 25.29 23.14C25.9536 23.2199 26.6229 23.24 27.29 23.2C27.7544 23.2122 28.2166 23.2691 28.67 23.37C28.8843 23.4264 29.0948 23.4966 29.3 23.58L29.53 23.67C29.62 23.67 29.7 23.62 29.65 23.54C29.2071 22.8356 28.6494 22.2104 28 21.69Z" fill="#FEBE10"/>
<path d="M10.6899 28.1498C8.74842 28.4451 6.76382 28.2456 4.91992 27.5698C5.62874 28.1407 6.39248 28.6398 7.19992 29.0598C9.19411 30.1005 11.4214 30.6134 13.6699 30.5498C14.6447 30.5197 15.6136 30.3856 16.5599 30.1498C15.0221 29.982 13.5222 29.5631 12.1199 28.9098C11.6299 28.6824 11.1526 28.4287 10.6899 28.1498V28.1498Z" fill="#FEBE10"/>
<path d="M22.36 22.6699C22.3772 22.6449 22.3864 22.6152 22.3864 22.5849C22.3864 22.5545 22.3772 22.5249 22.36 22.4999C22.3 22.4299 22.2 22.4999 22.2 22.4999C20.815 23.8503 19.2462 24.9983 17.54 25.9099C17.2 26.0899 16.85 26.2599 16.54 26.4199C15.0927 27.1058 13.5685 27.6161 12 27.9399C12.44 28.1799 12.89 28.4099 13.35 28.6099C14.7351 29.2259 16.2048 29.6304 17.71 29.8099C18.3153 29.6021 18.9037 29.348 19.47 29.0499C18.6515 28.4374 17.8764 27.7691 17.15 27.0499C19.1907 25.9953 20.9705 24.499 22.36 22.6699V22.6699Z" fill="#FEBE10"/>
<path d="M1.47 20.1698L1.79 20.3298C2.21944 20.5221 2.66884 20.6663 3.13 20.7598C3.56503 20.8519 4.0062 20.912 4.45 20.9398C4.26 20.4798 4.09 20.0198 3.94 19.5498C3.70591 18.8179 3.52872 18.069 3.41 17.3098C3.41 17.0598 3.34 16.7998 3.31 16.5398C3.28 16.2798 3.31 16.0998 3.26 15.8898C3.21 15.6798 3.26 15.6598 3.26 15.5398C3.26 15.0998 3.26 14.6598 3.26 14.2298C2.79074 14.1732 2.33435 14.038 1.91 13.8298L1.77 13.7498C1.54803 13.6196 1.34876 13.4541 1.18 13.2598C1.11096 13.1515 1.05077 13.0378 1 12.9198C0.949582 12.807 0.90942 12.6899 0.88 12.5698C0.681997 13.0987 0.518324 13.6398 0.39 14.1898C0.39 14.4098 0.29 14.6298 0.25 14.8598C0.140595 15.308 0.057123 15.7621 0 16.2198C0 16.3298 0 16.4398 0 16.5498C0 16.8898 0 17.2398 0 17.5498C0 17.8598 0.05 18.4298 0.1 18.8598C0.431826 19.4107 0.904798 19.863 1.47 20.1698V20.1698Z" fill="#FEBE10"/>
<path d="M5.36035 14.2302C5.01035 14.2302 4.68035 14.2302 4.36035 14.2902C4.36035 14.6002 4.36035 14.9102 4.36035 15.2202V15.5302C4.36035 15.7102 4.36035 15.8802 4.36035 16.0502C4.4417 16.8626 4.58208 17.6681 4.78035 18.4602C5.0234 19.3326 5.34125 20.1824 5.73035 21.0002C7.73953 20.8751 9.71677 20.4365 11.5904 19.7002C10.796 18.2534 10.0881 16.7608 9.47035 15.2302C9.36035 14.9702 9.26035 14.7102 9.16035 14.4502C9.54035 14.3002 9.93035 14.1402 10.3204 13.9502C12.4477 12.9982 14.324 11.5636 15.8004 9.76018C15.8804 9.66018 15.9404 9.57018 16.0104 9.47018C16.0804 9.37018 16.0804 9.36018 16.0104 9.29018C15.9992 9.27899 15.986 9.27011 15.9714 9.26406C15.9568 9.258 15.9411 9.25488 15.9254 9.25488C15.9096 9.25488 15.8939 9.258 15.8793 9.26406C15.8647 9.27011 15.8515 9.27899 15.8404 9.29018C15.6304 9.50018 15.4004 9.70018 15.1604 9.91018C13.8932 10.9657 12.495 11.8531 11.0004 12.5502C10.2887 12.8871 9.55733 13.181 8.81035 13.4302C8.1238 13.6667 7.42225 13.8571 6.71035 14.0002C6.24035 14.1102 5.79035 14.1802 5.36035 14.2302Z" fill="#FEBE10"/>
<path d="M1.85008 12.4C2.06433 12.5977 2.31591 12.7507 2.59008 12.85C2.67279 12.8904 2.7601 12.9206 2.85008 12.94C3.0134 12.9928 3.18057 13.0329 3.35008 13.06C3.35008 12.86 3.35008 12.66 3.43008 12.46L3.52008 12C3.62008 11.47 3.75008 10.95 3.90008 10.43C4.22484 9.33198 4.66041 8.26985 5.20008 7.25998C5.35008 6.98998 5.50008 6.71998 5.67008 6.44998L5.81008 6.22998C5.41517 6.49991 5.03465 6.79031 4.67008 7.09998C3.27754 8.3007 2.14154 9.77001 1.33008 11.42C1.35208 11.585 1.39579 11.7464 1.46008 11.9C1.55495 12.0913 1.68763 12.2614 1.85008 12.4V12.4Z" fill="#FEBE10"/>
<path d="M4.68016 11C4.68016 11.19 4.61016 11.39 4.58016 11.59C4.50016 12.1 4.44016 12.59 4.41016 13.14C5.28113 13.1529 6.15056 13.0622 7.00016 12.87C7.48016 12.77 8.00016 12.63 8.49016 12.47C8.43016 12.3 8.38016 12.12 8.32016 11.95C8.08016 11.21 7.87016 10.51 7.68016 9.86C7.62016 9.63 7.55016 9.41 7.50016 9.19C7.45016 8.97 7.31016 8.47 7.23016 8.19C7.00016 7.49 6.90016 6.92 6.80016 6.44C6.80016 6.23 6.72016 6.04 6.69016 5.87C6.66016 5.7 6.69016 5.79 6.69016 5.75L6.55016 6C6.40016 6.26 6.26016 6.54 6.13016 6.81C5.69238 7.67691 5.33101 8.58033 5.05016 9.51C4.91016 10 4.78016 10.51 4.68016 11Z" fill="#FEBE10"/>
<path d="M9.38969 27.2698C7.95945 26.1797 6.72516 24.8541 5.73969 23.3498C5.49969 22.9698 5.25969 22.5798 5.04969 22.1698C4.222 22.1795 3.39713 22.0717 2.59969 21.8498C2.22914 21.7482 1.87046 21.6074 1.52969 21.4298L1.23969 21.2598C0.940027 21.075 0.667433 20.8495 0.429688 20.5898C0.592963 21.2247 0.803551 21.8464 1.05969 22.4498C1.05969 22.5398 1.13969 22.6398 1.18969 22.7398C1.32969 23.0598 1.49969 23.3798 1.66969 23.7398C1.81748 24.0189 1.98108 24.2894 2.15969 24.5498C2.46571 25.0035 2.79969 25.4377 3.15969 25.8498C4.99535 27.0632 7.20952 27.5679 9.38969 27.2698V27.2698Z" fill="#FEBE10"/>
<path d="M14.0596 19.84C13.4296 20.15 12.7996 20.42 12.1696 20.67C10.2983 21.4393 8.32366 21.9279 6.30957 22.12C6.51798 22.5094 6.74835 22.8867 6.99957 23.25C7.99323 24.7592 9.25791 26.0714 10.7296 27.12C12.471 26.8433 14.171 26.3495 15.7896 25.65C14.6832 24.3999 13.6799 23.0621 12.7896 21.65C13.1396 21.5 13.4896 21.33 13.8396 21.16C16.6407 19.8638 19.0539 17.8574 20.8396 15.34C20.856 15.315 20.8632 15.2851 20.8602 15.2554C20.8571 15.2256 20.8439 15.1979 20.8228 15.1767C20.8017 15.1556 20.7739 15.1424 20.7442 15.1394C20.7144 15.1363 20.6846 15.1436 20.6596 15.16C18.7534 17.0977 16.5188 18.6822 14.0596 19.84V19.84Z" fill="#FEBE10"/>
</svg>
